<svg xmlns="http://www.w3.org/2000/svg" width="1000" height="620" viewBox="0 0 1000 620"><style>text{font-family:Arial,sans-serif;fill:#222}.b{fill:#f4f4f4;stroke:#777;stroke-width:2}.a{stroke:#555;stroke-width:2;marker-end:url(#m)}</style><defs><marker id="m" markerWidth="8" markerHeight="8" refX="7" refY="4" orient="auto"><path d="M0,0 L8,4 L0,8 z" fill="#555"/></marker></defs><text x="500" y="35" text-anchor="middle" font-size="26" font-weight="bold">Диаграмма контекста U-Verse</text><rect class="b" x="380" y="250" width="240" height="90" rx="12"/><text x="500" y="290" text-anchor="middle" font-size="24" font-weight="bold">U-Verse</text><text x="500" y="320" text-anchor="middle" font-size="15">образовательная платформа</text><rect class="b" x="60" y="100" width="180" height="60" rx="10"/><text x="150" y="125" text-anchor="middle" font-size="15">Кандидат в преподаватели</text><text x="150" y="145" text-anchor="middle" font-size="15">(Регистрация)</text><rect class="b" x="285" y="100" width="150" height="60" rx="10"/><text x="360" y="125" text-anchor="middle" font-size="15">Студент</text><text x="360" y="145" text-anchor="middle" font-size="15">(Пользователь)</text><rect class="b" x="565" y="100" width="170" height="60" rx="10"/><text x="650" y="125" text-anchor="middle" font-size="15">Преподаватель</text><text x="650" y="145" text-anchor="middle" font-size="15">(Пользователь)</text><rect class="b" x="760" y="100" width="180" height="60" rx="10"/><text x="850" y="125" text-anchor="middle" font-size="15">Администратор</text><text x="850" y="145" text-anchor="middle" font-size="15">(Модератор)</text><rect class="b" x="90" y="430" width="160" height="60" rx="10"/><text x="170" y="455" text-anchor="middle" font-size="15">Unisender</text><text x="170" y="475" text-anchor="middle" font-size="15">email-уведомления</text><rect class="b" x="300" y="430" width="150" height="60" rx="10"/><text x="375" y="455" text-anchor="middle" font-size="15">Pruffme</text><text x="375" y="475" text-anchor="middle" font-size="15">вебинары</text><rect class="b" x="550" y="430" width="150" height="60" rx="10"/><text x="625" y="455" text-anchor="middle" font-size="15">RaifPay</text><text x="625" y="475" text-anchor="middle" font-size="15">платежи</text><rect class="b" x="760" y="430" width="150" height="60" rx="10"/><text x="835" y="455" text-anchor="middle" font-size="15">ЮKassa</text><text x="835" y="475" text-anchor="middle" font-size="15">платежи</text><path class="a" d="M240 160 L400 250"/><path class="a" d="M360 160 L450 250"/><path class="a" d="M650 160 L550 250"/><path class="a" d="M850 160 L600 250"/><path class="a" d="M380 340 L170 430"/><path class="a" d="M430 340 L375 430"/><path class="a" d="M570 340 L625 430"/><path class="a" d="M610 340 L835 430"/></svg>